<svg t="1734338581907" class="icon" viewBox="0 0 1024 1024" version="1.1" xmlns="http://www.w3.org/2000/svg" p-id="4267" width="200" height="200"><path d="M843.52 443.264l-95.552 95.552-37.12-97.28 65.472-65.472a71.168 71.168 0 0 0 0-100.736l-33.6-33.6a71.296 71.296 0 0 0-100.8 0l-168 167.936a71.168 71.168 0 0 0 0 100.736l23.296 23.296-39.168 91.968c-6.016-4.544-12.16-8.96-17.664-14.464l-33.6-33.6a166.272 166.272 0 0 1 0-235.2L574.72 174.464a166.272 166.272 0 0 1 235.2 0l33.6 33.6a166.4 166.4 0 0 1 0 235.2zM725.12 561.6l22.848-22.848L725.12 561.6z m-452.8 217.6c27.84 27.84 72.96 27.84 100.736 0l168-168a71.168 71.168 0 0 0 0-100.736l-19.648-19.776 30.336-99.84c8.064 5.568 15.872 11.648 23.04 18.816l33.6 33.6a166.272 166.272 0 0 1 0 235.2l-168 168a166.272 166.272 0 0 1-235.2 0L171.648 812.8a166.272 166.272 0 0 1 0-235.2l136.32-136.32-34.56 34.496 28.672 105.728-63.36 63.36a71.296 71.296 0 0 0 0 100.8c0.064-0.064 33.6 33.536 33.6 33.536z" fill="#ffffff" p-id="4268" data-spm-anchor-id="a313x.search_index.0.i0.73d13a813AcU65" class="selected"></path></svg>